<?xml version="1.0" encoding="utf-8"?>
<svg xmlns="http://www.w3.org/2000/svg"
	xmlns:xlink="http://www.w3.org/1999/xlink"
	width="95px" height="83px" viewBox="0 0 95 83">
<path fillRule="evenodd" d="M 59.37 62.25C 59.37 62.25 35.62 62.25 35.62 62.25 35.62 62.25 47.5 41.51 47.5 41.51 47.5 41.51 59.37 62.25 59.37 62.25ZM 23.75 83C 23.75 83 29.68 72.63 29.68 72.63 29.68 72.63 29.68 72.63 29.68 72.63 29.68 72.63 77.18 72.63 77.18 72.63 77.18 72.63 47.49 20.76 47.49 20.76 47.49 20.76 11.87 83 11.87 83 11.87 83-0 83-0 83-0 83 47.49 0.01 47.49 0.01 47.49 0.01 47.5 0.01 47.5 0.01 47.5 0.01 94.99 83 94.99 83 94.99 83 23.75 83 23.75 83Z" fill="rgb(255,255,255)"/></svg>