<?xml version="1.0" encoding="utf-8"?>
<svg xmlns="http://www.w3.org/2000/svg"
	xmlns:xlink="http://www.w3.org/1999/xlink"
	width="22px" height="20px" viewBox="0 0 22 20">
<path fillRule="evenodd" d="M 17.93 0C 17.93 0 5 0 5 0 2.76 0 0.93 1.73 0.93 3.87 0.93 3.87 0.93 7.95 0.93 7.95 0.93 7.95 0.93 16.13 0.93 16.13 0.93 18.27 2.76 20 5 20 5 20 17.93 20 17.93 20 20.17 20 22 18.27 22 16.13 22 16.13 22 7.95 22 7.95 22 7.95 22 3.87 22 3.87 22 1.73 20.17 0 17.93 0ZM 19.09 2.31C 19.09 2.31 19.56 2.3 19.56 2.3 19.56 2.3 19.56 2.74 19.56 2.74 19.56 2.74 19.56 5.69 19.56 5.69 19.56 5.69 16 5.71 16 5.71 16 5.71 15.99 2.32 15.99 2.32 15.99 2.32 19.09 2.31 19.09 2.31ZM 8.46 7.95C 9.13 7.06 10.23 6.48 11.46 6.48 12.7 6.48 13.8 7.06 14.47 7.95 14.91 8.53 15.17 9.23 15.17 10 15.17 11.94 13.51 13.52 11.46 13.52 9.42 13.52 7.76 11.94 7.76 10 7.76 9.23 8.02 8.53 8.46 7.95ZM 19.95 16.13C 19.95 17.19 19.04 18.05 17.93 18.05 17.93 18.05 5 18.05 5 18.05 3.89 18.05 2.98 17.19 2.98 16.13 2.98 16.13 2.98 7.95 2.98 7.95 2.98 7.95 6.13 7.95 6.13 7.95 5.86 8.58 5.7 9.27 5.7 10 5.7 13.02 8.29 15.47 11.46 15.47 14.64 15.47 17.23 13.02 17.23 10 17.23 9.27 17.07 8.58 16.8 7.95 16.8 7.95 19.95 7.95 19.95 7.95 19.95 7.95 19.95 16.13 19.95 16.13Z" fill="rgb(255,255,255)"/></svg>