<?xml version="1.0" encoding="utf-8"?>
<svg xmlns="http://www.w3.org/2000/svg"
	xmlns:xlink="http://www.w3.org/1999/xlink"
	width="24px" height="15px" viewBox="0 0 24 15">
<path fillRule="evenodd" d="M 11.07 1.78C 11.5 2.35 11.72 3.04 11.72 3.84 11.72 4.67 11.5 5.33 11.07 5.84 10.82 6.12 10.47 6.38 9.99 6.61 10.71 6.86 11.25 7.26 11.62 7.8 11.99 8.35 12.17 9.01 12.17 9.79 12.17 10.59 11.96 11.31 11.54 11.95 11.28 12.37 10.94 12.73 10.54 13.01 10.09 13.35 9.56 13.57 8.95 13.69 8.34 13.82 7.67 13.88 6.96 13.88 6.96 13.88 0.6 13.88 0.6 13.88 0.6 13.88 0.6 0.33 0.6 0.33 0.6 0.33 7.42 0.33 7.42 0.33 9.14 0.36 10.36 0.84 11.07 1.78ZM 3.41 2.68C 3.41 2.68 3.41 5.67 3.41 5.67 3.41 5.67 6.84 5.67 6.84 5.67 7.45 5.67 7.95 5.56 8.34 5.34 8.72 5.11 8.91 4.71 8.91 4.15 8.91 3.52 8.66 3.1 8.15 2.9 7.72 2.75 7.16 2.68 6.48 2.68 6.48 2.68 3.41 2.68 3.41 2.68ZM 3.41 7.91C 3.41 7.91 3.41 11.53 3.41 11.53 3.41 11.53 6.84 11.53 6.84 11.53 7.45 11.53 7.93 11.45 8.27 11.29 8.89 10.99 9.19 10.43 9.19 9.6 9.19 8.89 8.9 8.41 8.3 8.14 7.96 8 7.49 7.92 6.89 7.91 6.89 7.91 3.41 7.91 3.41 7.91ZM 20.7 4.06C 21.43 4.38 22.03 4.87 22.5 5.55 22.93 6.14 23.21 6.83 23.33 7.62 23.41 8.08 23.44 8.74 23.42 9.6 23.42 9.6 15.82 9.6 15.82 9.6 15.87 10.61 16.23 11.31 16.92 11.72 17.33 11.97 17.83 12.1 18.42 12.1 19.04 12.1 19.55 11.94 19.93 11.64 20.15 11.47 20.34 11.24 20.5 10.95 20.5 10.95 23.28 10.95 23.28 10.95 23.21 11.54 22.87 12.14 22.27 12.76 21.34 13.73 20.03 14.22 18.35 14.22 16.96 14.22 15.73 13.81 14.67 12.99 13.61 12.16 13.08 10.83 13.08 8.98 13.08 7.24 13.56 5.91 14.52 4.98 15.48 4.06 16.72 3.59 18.25 3.59 19.15 3.59 19.97 3.75 20.7 4.06ZM 16.62 6.33C 16.23 6.71 15.99 7.23 15.89 7.88 15.89 7.88 20.59 7.88 20.59 7.88 20.54 7.18 20.3 6.66 19.87 6.29 19.43 5.93 18.89 5.75 18.25 5.75 17.55 5.75 17 5.94 16.62 6.33ZM 21.23 0.96C 21.23 0.96 15.19 0.96 15.19 0.96 15.19 0.96 15.19 2.65 15.19 2.65 15.19 2.65 21.23 2.65 21.23 2.65 21.23 2.65 21.23 0.96 21.23 0.96Z" fill="rgb(255,255,255)"/></svg>