<?xml version="1.0" encoding="utf-8"?>
<svg xmlns="http://www.w3.org/2000/svg"
	xmlns:xlink="http://www.w3.org/1999/xlink"
	width="18px" height="16px" viewBox="0 0 18 16">
<path fillRule="evenodd" d="M 4.3 15.74C 4.3 15.74 0.87 15.74 0.87 15.74 0.87 15.74 0.87 5.18 0.87 5.18 0.87 5.18 4.3 5.18 4.3 5.18 4.3 5.18 4.3 15.74 4.3 15.74ZM 2.5 3.86C 2.5 3.86 2.47 3.86 2.47 3.86 1.23 3.86 0.43 3.05 0.43 2.03 0.43 0.99 1.26 0.19 2.52 0.19 3.78 0.19 4.56 0.98 4.58 2.02 4.58 3.05 3.78 3.86 2.5 3.86ZM 17.99 15.74C 17.99 15.74 14.11 15.74 14.11 15.74 14.11 15.74 14.11 10.27 14.11 10.27 14.11 8.84 13.5 7.87 12.17 7.87 11.15 7.87 10.58 8.53 10.32 9.16 10.21 9.39 10.23 9.71 10.23 10.02 10.23 10.02 10.23 15.74 10.23 15.74 10.23 15.74 6.39 15.74 6.39 15.74 6.39 15.74 6.44 6.06 6.39 5.18 6.39 5.18 10.23 5.18 10.23 5.18 10.23 5.18 10.23 6.83 10.23 6.83 10.46 6.11 11.69 5.08 13.65 5.08 16.08 5.08 17.99 6.6 17.99 9.87 17.99 9.87 17.99 15.74 17.99 15.74Z" fill="rgb(255,255,255)"/></svg>