<?xml version="1.0" encoding="utf-8"?>
<svg xmlns="http://www.w3.org/2000/svg"
	xmlns:xlink="http://www.w3.org/1999/xlink"
	width="10px" height="20px" viewBox="0 0 10 20">
<path fillRule="evenodd" d="M-0.01 6.61C-0.01 6.61 2.13 6.61 2.13 6.61 2.13 6.61 2.13 4.6 2.13 4.6 2.13 3.72 2.15 2.35 2.82 1.51 3.52 0.61 4.48-0 6.13-0 8.83-0 9.97 0.37 9.97 0.37 9.97 0.37 9.43 3.44 9.43 3.44 9.43 3.44 8.54 3.19 7.71 3.19 6.88 3.19 6.13 3.47 6.13 4.28 6.13 4.28 6.13 6.61 6.13 6.61 6.13 6.61 9.54 6.61 9.54 6.61 9.54 6.61 9.3 9.61 9.3 9.61 9.3 9.61 6.13 9.61 6.13 9.61 6.13 9.61 6.13 20 6.13 20 6.13 20 2.13 20 2.13 20 2.13 20 2.13 9.61 2.13 9.61 2.13 9.61-0.01 9.61-0.01 9.61-0.01 9.61-0.01 6.61-0.01 6.61Z" fill="rgb(255,255,255)"/></svg>