<?xml version="1.0" encoding="utf-8"?>
<svg xmlns="http://www.w3.org/2000/svg"
	xmlns:xlink="http://www.w3.org/1999/xlink"
	width="22px" height="20px" viewBox="0 0 22 20">
<path fillRule="evenodd" d="M 20.91 7.99C 20.77 7.34 20.56 6.71 20.29 6.11 20.03 5.51 19.7 4.94 19.32 4.41 18.95 3.88 18.51 3.38 18.04 2.93 17.56 2.48 17.04 2.07 16.48 1.71 15.92 1.35 15.31 1.04 14.69 0.79 14.05 0.53 13.39 0.33 12.71 0.2 12.02 0.07 11.3-0 10.59-0 9.87-0 9.16 0.07 8.47 0.2 7.79 0.33 7.12 0.53 6.49 0.79 5.86 1.04 5.26 1.35 4.7 1.71 4.14 2.07 3.62 2.48 3.14 2.93 2.66 3.38 2.23 3.88 1.85 4.41 1.47 4.94 1.14 5.51 0.88 6.11 0.61 6.71 0.4 7.34 0.27 7.99 0.12 8.64 0.05 9.32 0.05 10 0.05 10.68 0.12 11.36 0.27 12.01 0.4 12.66 0.61 13.29 0.88 13.89 1.14 14.49 1.47 15.06 1.85 15.59 2.23 16.12 2.66 16.62 3.14 17.07 3.62 17.52 4.14 17.93 4.7 18.29 5.26 18.65 5.86 18.96 6.49 19.21 7.12 19.47 7.79 19.66 8.47 19.8 9.16 19.93 9.87 20 10.59 20 11.3 20 12.02 19.93 12.71 19.8 13.39 19.66 14.05 19.47 14.69 19.21 15.31 18.96 15.92 18.65 16.48 18.29 17.04 17.93 17.56 17.52 18.04 17.07 18.51 16.62 18.95 16.12 19.32 15.59 19.7 15.06 20.03 14.49 20.29 13.89 20.56 13.29 20.77 12.66 20.91 12.01 21.05 11.36 21.12 10.68 21.12 10 21.12 9.32 21.05 8.64 20.91 7.99ZM 19.58 9.91C 19.45 9.89 16.41 9.27 13.31 9.63 13.25 9.49 13.19 9.34 13.12 9.19 12.93 8.78 12.73 8.36 12.52 7.95 16.08 6.58 17.52 4.6 17.53 4.58 18.8 6.03 19.56 7.89 19.58 9.91ZM 16.53 3.59C 16.51 3.62 15.23 5.48 11.83 6.68 10.29 4 8.6 1.87 8.47 1.7 9.15 1.54 9.86 1.46 10.59 1.46 12.86 1.46 14.94 2.27 16.53 3.59ZM 8.43 1.71C 8.43 1.71 8.43 1.71 8.43 1.71 8.43 1.71 8.42 1.71 8.4 1.72 8.41 1.71 8.42 1.71 8.43 1.71ZM 6.75 2.28C 6.87 2.43 8.53 4.57 10.09 7.2 5.77 8.29 2.02 8.24 1.78 8.24 2.37 5.59 4.24 3.4 6.75 2.28ZM 1.59 10C 1.59 9.91 1.59 9.82 1.6 9.73 1.76 9.73 6.2 9.83 10.84 8.51 11.09 8.99 11.34 9.48 11.57 9.96 11.44 10 11.33 10.03 11.21 10.07 6.36 11.56 3.89 15.7 3.89 15.7 3.89 15.7 3.9 15.71 3.9 15.71 2.46 14.19 1.59 12.19 1.59 10ZM 10.59 18.54C 8.41 18.54 6.41 17.81 4.86 16.58 4.98 16.67 5.06 16.73 5.06 16.73 5.06 16.73 6.78 13.16 12.12 11.4 12.14 11.39 12.16 11.38 12.18 11.38 13.44 14.5 13.97 17.12 14.1 17.86 13.02 18.3 11.83 18.54 10.59 18.54ZM 15.61 17.08C 15.52 16.57 15.04 14.06 13.87 10.98 16.77 10.54 19.28 11.3 19.47 11.36 19.07 13.74 17.64 15.79 15.61 17.08Z" fill="rgb(255,255,255)"/></svg>